<svg id="Слой_1" data-name="Слой 1" xmlns="http://www.w3.org/2000/svg" viewBox="0 0 122 122"><defs><style>.cls-1{fill:#fecb33;}.cls-2{fill:#8ecae6;}</style></defs><path class="cls-1" d="M91.56,66.09H90c-6.14,0-12.29,0-18.43,0a5.09,5.09,0,1,1-.16-10.16H91.56V54.62c0-4.48,0-9,0-13.44a5.12,5.12,0,0,1,3.12-5.13c2-.9,4.08-.39,5.85,1.38q9.89,9.87,19.76,19.76a5,5,0,0,1,0,7.58q-9.93,10-19.92,19.93A5.09,5.09,0,0,1,91.56,81Z"/><path class="cls-2" d="M59,0H15.37A15.37,15.37,0,0,0,0,15.37v91.26A15.37,15.37,0,0,0,15.37,122H63.63A15.37,15.37,0,0,0,79,106.63V85H59v17.5H26v-83H59V37H79V15.37A15.37,15.37,0,0,0,63.63,0Z"/></svg>