<svg id="Слой_1" data-name="Слой 1" xmlns="http://www.w3.org/2000/svg" viewBox="0 0 65 55"><defs><style>.cls-1{fill:#fecb33;}.cls-2{fill:#fda732;}.cls-3{fill:#219ebc;}.cls-4{fill:#8ecae6;}</style></defs><path class="cls-1" d="M18.66,2.59c2.5-.69,5-1.53,7.51-2A60.31,60.31,0,0,1,32.49,0V22.41c-2.82.26-4.71,2.24-4.61,4.86.09,2.44,1.92,4.22,4.61,4.49V55l-7.93,0H2.7a2.68,2.68,0,0,1-2-.73,2.33,2.33,0,0,1,.08-3.33c1.84-2.13,3.68-4.24,5.52-6.36l.33-.39c-.67-.87-1.37-1.72-2-2.62A24,24,0,0,1,5.74,11.94,31.36,31.36,0,0,1,17.82,3C18.11,2.86,18.38,2.72,18.66,2.59Zm4.59,24.54A4.62,4.62,0,1,0,14,27a4.62,4.62,0,1,0,9.23.1Z"/><path class="cls-2" d="M32.49,22.41V0A35.93,35.93,0,0,1,46.92,2.84l1.89.83a34,34,0,0,1,8.3,5.89,25.67,25.67,0,0,1,7.5,13.69c.24,1.26.27,2.56.39,3.84a23.8,23.8,0,0,1-4.52,14.24A32.9,32.9,0,0,1,44.33,53.26,29.62,29.62,0,0,1,32.49,55V31.7a4.62,4.62,0,1,0,0-9.24Zm18.63,4.67a4.62,4.62,0,1,0-4.66,4.65A4.64,4.64,0,0,0,51.12,27.08Z"/><path class="cls-3" d="M23.25,27.13a4.62,4.62,0,1,1-4.6-4.69A4.63,4.63,0,0,1,23.25,27.13Z"/><path class="cls-3" d="M32.49,31.76c-2.69-.27-4.52-2.05-4.61-4.49-.1-2.62,1.79-4.6,4.61-4.86v9.35Z"/><path class="cls-4" d="M51.12,27.08a4.62,4.62,0,1,1-4.58-4.64A4.65,4.65,0,0,1,51.12,27.08Z"/><path class="cls-4" d="M32.48,31.7V22.46a4.62,4.62,0,1,1,0,9.24Z"/></svg>